<?xml version="1.0" standalone="no"?>
<!DOCTYPE svg PUBLIC "-//W3C//DTD SVG 20010904//EN"
 "http://www.w3.org/TR/2001/REC-SVG-20010904/DTD/svg10.dtd">
<svg version="1.0" xmlns="http://www.w3.org/2000/svg"
 width="1600.000000pt" height="1600.000000pt" viewBox="0 0 1600.000000 1600.000000"
 preserveAspectRatio="xMidYMid meet">
<metadata>
Created by potrace 1.14, written by Peter Selinger 2001-2017
</metadata>
<g transform="translate(0.000000,1600.000000) scale(0.100000,-0.100000)"
fill="#000000" stroke="none">
<path d="M6410 15989 c-97 -17 -163 -37 -268 -82 -60 -26 -74 -38 -84 -64 -8
-23 -24 -37 -58 -53 -121 -57 -210 -194 -238 -365 -8 -53 -7 -256 2 -325 4
-30 9 -67 10 -81 2 -14 5 -30 9 -35 9 -16 -6 -29 -38 -32 -34 -4 -60 -22 -32
-22 40 0 44 -19 22 -98 -23 -78 -26 -205 -7 -267 6 -19 6 -40 0 -55 -16 -41
-22 -81 -22 -151 0 -51 5 -72 22 -96 24 -34 28 -52 12 -54 -15 -2 -22 -4 -65
-23 -183 -78 -346 -204 -447 -346 -132 -186 -184 -329 -192 -530 -1 -36 0 -69
3 -75 3 -5 6 -23 7 -39 5 -56 32 -161 55 -211 12 -25 13 -50 5 -95 -17 -92
-25 -142 -25 -148 1 -4 0 -9 -1 -12 -1 -3 -3 -23 -4 -45 -3 -41 -13 -159 -22
-250 -7 -75 -15 -129 -20 -137 -3 -5 0 -8 6 -8 6 0 8 -5 4 -11 -7 -11 -7 -17
-19 -154 -3 -44 -8 -87 -10 -95 -2 -8 -7 -46 -10 -85 -3 -38 -7 -88 -10 -110
-9 -89 -18 -171 -20 -195 -2 -14 -6 -50 -9 -80 -3 -30 -7 -73 -10 -95 -2 -22
-8 -69 -11 -105 -4 -36 -9 -74 -11 -85 -2 -11 -6 -51 -9 -90 -3 -38 -7 -77 -9
-85 -5 -16 -11 -69 -30 -247 -4 -34 -8 -70 -10 -80 -5 -22 -13 -89 -22 -168
-3 -33 -8 -69 -10 -80 -4 -19 -12 -86 -19 -145 -1 -14 -6 -45 -9 -70 -4 -25
-9 -61 -12 -80 -2 -20 -7 -47 -9 -60 -3 -14 -8 -50 -11 -80 -3 -30 -9 -73 -13
-95 -5 -22 -9 -47 -10 -55 -1 -18 -8 -63 -11 -70 -1 -3 -2 -8 -1 -12 0 -6 -8
-59 -24 -143 -3 -16 -8 -50 -12 -75 -9 -68 -19 -88 -55 -103 -106 -46 -156
-207 -93 -303 8 -13 25 -32 37 -44 20 -19 21 -23 10 -68 -7 -26 -14 -56 -17
-67 -15 -63 -49 -172 -57 -182 -5 -7 -8 -16 -5 -20 6 -12 -65 -146 -83 -154
-8 -5 -60 -30 -115 -57 -165 -80 -180 -90 -256 -165 -39 -39 -47 -53 -44 -77
9 -74 88 -186 230 -326 89 -89 97 -103 65 -117 -21 -9 -210 -131 -238 -154
-22 -17 -23 -25 -28 -208 -3 -104 -7 -206 -8 -225 -2 -22 8 -56 26 -91 15 -31
28 -58 28 -60 0 -3 -32 -29 -70 -59 -38 -30 -70 -58 -70 -62 0 -5 -6 -8 -13
-8 -7 0 -28 -15 -47 -33 -19 -17 -71 -60 -115 -93 l-80 -62 -130 4 c-71 2
-145 6 -163 8 -28 3 -34 0 -46 -28 -11 -25 -81 -211 -126 -336 -5 -14 -15 -38
-21 -55 -7 -16 -13 -32 -13 -35 -1 -3 -11 -30 -23 -60 -25 -65 -77 -203 -79
-210 -1 -5 -19 -51 -31 -80 -3 -8 -5 -19 -4 -24 1 -4 -2 -13 -7 -20 -5 -6 -51
-123 -101 -261 -51 -137 -97 -261 -103 -275 -16 -39 -59 -150 -158 -420 -9
-25 -20 -52 -23 -60 -23 -55 -99 -267 -100 -277 0 -7 -4 -13 -9 -13 -4 0 -7
-3 -6 -7 0 -5 -1 -15 -5 -23 -3 -8 -22 -60 -42 -115 -20 -55 -42 -114 -50
-132 -8 -17 -15 -36 -15 -42 0 -7 -9 -30 -19 -52 l-20 -40 32 -20 c18 -10 35
-19 38 -19 4 0 28 -10 55 -22 27 -12 54 -23 59 -24 6 -1 24 -8 40 -15 17 -7
32 -13 35 -14 3 0 34 -11 70 -23 36 -12 68 -22 72 -22 4 -1 27 -8 50 -16 45
-16 289 -78 349 -88 19 -4 64 -12 100 -19 37 -8 74 -12 83 -11 9 1 16 -2 16
-7 0 -6 3 -8 8 -5 4 2 28 1 52 -4 45 -8 93 -15 180 -25 25 -3 61 -7 80 -10
300 -36 546 -48 1012 -49 363 -1 368 -1 362 -21 -7 -22 -179 -485 -195 -523
-5 -13 -35 -92 -65 -175 -31 -84 -61 -163 -67 -177 -6 -14 -11 -27 -12 -30 -6
-23 -21 -65 -42 -120 -96 -243 -277 -776 -298 -874 -8 -41 -26 -107 -70 -256
-20 -69 -38 -133 -40 -144 -5 -20 -39 -134 -63 -211 -9 -27 -17 -55 -18 -61
-1 -6 -14 -51 -30 -100 -15 -49 -28 -97 -27 -106 0 -10 -3 -18 -7 -18 -4 0 -7
-6 -7 -12 -1 -15 -60 -208 -65 -213 -2 -2 -23 -6 -48 -10 -59 -9 -149 -39
-219 -74 -31 -16 -91 -43 -134 -60 -186 -74 -247 -155 -177 -234 58 -67 284
-160 490 -202 8 -2 47 -11 85 -20 39 -9 86 -18 105 -21 19 -3 43 -7 52 -10 23
-7 57 -13 93 -18 17 -3 62 -10 100 -16 107 -19 148 -25 230 -35 22 -3 51 -7
65 -10 29 -5 86 -13 150 -20 25 -3 68 -8 95 -11 62 -8 82 -10 170 -19 39 -3
81 -8 95 -10 22 -3 64 -7 205 -20 17 -2 66 -6 110 -9 44 -4 103 -9 130 -11 28
-3 91 -8 140 -11 50 -3 110 -8 135 -10 25 -2 86 -6 135 -8 50 -3 119 -8 155
-11 74 -6 203 -13 370 -20 63 -2 176 -7 250 -10 74 -4 188 -8 253 -9 65 -2
120 -6 123 -9 4 -3 17 -2 30 3 13 5 24 6 24 2 0 -10 361 -15 1175 -15 846 0
1143 6 1855 38 153 7 266 13 361 20 46 3 120 8 164 10 162 9 418 28 545 41 30
3 80 7 111 9 31 2 74 6 95 9 56 7 151 17 209 22 28 2 68 6 90 9 94 11 122 15
165 20 25 3 63 8 85 11 22 3 58 7 80 10 50 6 93 12 125 18 14 2 48 7 75 11 28
3 57 8 65 10 14 4 68 13 115 19 11 2 46 9 77 15 32 7 70 14 85 16 16 2 28 4
28 5 0 1 8 3 17 5 9 2 40 8 70 15 29 7 62 14 73 16 27 4 177 48 240 69 83 28
188 82 228 119 85 76 43 153 -123 232 -42 19 -182 69 -226 79 -10 3 -55 14
-99 25 -44 12 -91 23 -105 26 -14 2 -45 9 -70 14 -25 5 -56 12 -70 14 -14 3
-48 9 -77 15 -29 6 -74 13 -100 16 -26 4 -55 8 -63 10 -8 3 -33 7 -55 10 -22
4 -53 9 -70 12 -16 3 -41 6 -55 8 -80 9 -132 16 -184 25 -32 5 -61 9 -65 8 -6
-1 -78 7 -161 18 -19 3 -57 7 -85 10 -27 3 -66 7 -85 10 -19 2 -69 6 -110 9
-41 3 -91 8 -110 11 -19 3 -62 8 -95 10 -33 2 -82 6 -110 8 -27 3 -95 8 -150
12 -119 8 -156 10 -255 18 -41 3 -118 8 -170 11 -52 3 -129 8 -170 10 -41 3
-131 7 -199 10 -68 3 -128 8 -133 11 -4 3 -8 -1 -8 -8 0 -8 -3 -9 -8 -3 -4 6
-29 10 -57 11 -27 0 -144 4 -260 8 -426 14 -516 17 -771 20 -144 2 -267 7
-273 10 -6 4 -11 3 -11 -1 0 -9 -109 -8 -117 1 -3 2 -18 0 -34 -4 -16 -5 -31
-5 -33 -1 -6 8 -71 5 -86 -4 -6 -3 -10 -2 -10 3 0 5 -17 6 -40 2 -22 -4 -40
-5 -40 -1 0 3 -11 6 -25 6 -14 0 -25 -4 -25 -8 0 -5 -5 -5 -12 -1 -13 8 -155
7 -168 -1 -5 -3 -11 -1 -15 5 -4 6 -11 7 -18 3 -16 -10 -57 -10 -57 0 0 4 -5
5 -11 2 -11 -8 -199 -13 -199 -6 0 2 9 18 20 36 15 25 18 39 11 56 -5 13 -10
29 -11 34 -1 6 -4 15 -5 20 -4 14 -25 97 -30 120 -14 56 -129 517 -141 562
-18 65 -59 114 -122 143 -26 12 -51 23 -57 25 -10 2 -16 4 -78 27 -71 27 -157
186 -232 434 -20 66 -39 130 -41 143 -3 12 -11 51 -19 85 -8 34 -17 79 -21
101 -3 22 -7 42 -9 45 -2 3 -6 26 -9 50 -4 25 -9 56 -11 70 -3 14 -7 45 -10
70 -8 67 -14 97 -36 190 -20 85 -82 297 -99 335 -4 11 -22 63 -40 115 -17 52
-35 104 -40 115 -11 23 -60 155 -64 170 -2 6 -9 24 -16 40 -6 17 -23 59 -37
95 -13 35 -33 83 -44 107 -10 23 -19 44 -19 46 0 3 -9 26 -21 52 l-21 47 -23
-31 -22 -31 -33 82 c-135 341 -340 642 -514 753 -30 19 -57 35 -59 35 -3 0
-22 8 -43 17 -22 9 -44 16 -51 15 -17 -3 -32 59 -29 116 4 60 25 110 68 158
36 41 118 158 118 169 0 4 8 19 19 33 39 57 251 470 251 491 0 6 5 11 10 11 6
0 10 7 10 15 0 8 8 29 18 47 10 18 26 53 37 78 10 25 34 79 53 120 19 41 39
86 44 100 l11 25 8 -30 c5 -16 11 -41 13 -55 3 -14 7 -34 10 -45 5 -17 29
-122 41 -179 3 -10 12 -44 21 -75 9 -31 17 -63 19 -71 2 -8 9 -28 16 -45 7
-16 12 -33 11 -37 -1 -3 19 -27 44 -51 58 -58 134 -80 272 -81 117 -1 199 8
312 35 47 11 96 22 110 25 59 13 211 70 283 106 54 29 79 47 83 63 3 13 19 29
35 35 16 7 29 16 29 21 0 4 8 10 18 14 19 5 142 122 196 184 47 56 129 183
161 252 17 35 32 66 35 69 6 6 60 156 65 181 2 9 13 61 25 115 12 55 24 128
28 164 9 90 8 361 -1 445 -13 129 -16 150 -21 172 -4 21 -20 112 -21 125 0 3
-18 20 -40 38 -94 73 -121 97 -260 225 -161 148 -393 385 -377 385 4 0 0 5 -9
10 -17 10 -195 225 -239 290 -13 19 -29 40 -35 46 -6 6 -35 49 -65 95 -30 46
-58 86 -62 87 -5 2 -8 7 -8 12 0 4 -18 38 -41 75 -74 122 -136 247 -214 430
-52 123 -129 375 -140 457 -2 15 -6 35 -9 45 -3 10 -7 29 -10 43 -2 14 -7 41
-10 60 -29 165 -34 469 -12 695 4 39 9 77 11 85 3 8 7 30 10 48 15 90 18 108
43 207 34 136 62 237 73 257 5 10 7 18 5 18 -8 0 51 157 74 200 35 64 94 239
114 340 24 121 50 172 94 188 38 13 55 1 58 -40 3 -44 13 -158 19 -205 2 -21
7 -67 10 -103 15 -161 22 -216 34 -258 5 -17 7 -33 3 -36 -3 -3 0 -6 6 -6 7 0
11 -3 10 -7 -1 -5 3 -30 10 -58 7 -27 14 -59 16 -70 4 -19 62 -252 72 -285 90
-321 240 -767 360 -1070 28 -71 37 -95 40 -105 1 -5 32 -82 69 -170 36 -88 68
-168 70 -179 2 -10 8 -23 13 -30 5 -6 17 -31 26 -56 19 -47 123 -290 161 -375
13 -27 35 -76 49 -107 14 -32 38 -84 52 -115 89 -194 84 -180 65 -197 -19 -17
-21 -27 -21 -91 0 -105 160 -300 442 -537 31 -27 61 -48 66 -48 10 0 90 89
106 119 5 9 12 18 15 21 15 12 121 184 121 196 0 8 3 14 8 14 4 0 34 56 67
125 33 68 62 124 65 124 3 1 23 -15 45 -35 62 -55 163 -119 277 -177 l103 -52
-2 -75 c-8 -357 -15 -545 -19 -552 -3 -4 -7 -16 -9 -25 -3 -19 -42 -146 -52
-173 -3 -8 -7 -20 -8 -26 -2 -5 -20 -64 -41 -130 -41 -128 -41 -129 -43 -144
0 -5 -7 -10 -14 -10 -10 0 -13 -11 -12 -35 1 -19 -6 -61 -17 -92 -11 -32 -21
-65 -23 -73 -2 -8 -19 -64 -39 -125 -28 -90 -47 -151 -81 -265 -1 -3 -4 -12
-8 -20 -3 -8 -15 -46 -26 -85 -12 -38 -33 -107 -47 -151 l-26 -82 -79 5 c-69
5 -79 4 -79 -11 0 -9 -4 -24 -9 -34 -5 -9 -14 -28 -19 -42 -6 -14 -27 -60 -47
-103 -19 -43 -35 -81 -35 -83 0 -3 -9 -26 -21 -52 -40 -90 -48 -107 -74 -172
-15 -36 -36 -85 -47 -110 -21 -46 -51 -114 -70 -160 -6 -14 -12 -29 -13 -35
-2 -5 -14 -35 -28 -65 -13 -30 -60 -136 -102 -235 -43 -99 -86 -200 -97 -225
-11 -25 -26 -58 -33 -75 -68 -153 -147 -347 -143 -350 2 -2 26 -6 53 -9 28 -3
50 -5 50 -6 0 -1 20 -3 45 -5 25 -1 70 -6 100 -9 89 -10 183 -19 215 -22 17
-1 30 -3 30 -4 0 -1 20 -3 45 -5 25 -1 74 -6 110 -9 36 -4 85 -9 110 -11 25
-2 45 -5 45 -5 0 -1 20 -3 45 -5 25 -3 72 -7 105 -11 33 -3 76 -7 95 -9 44 -4
144 -15 190 -20 19 -2 67 -6 105 -9 39 -4 81 -8 95 -11 14 -2 57 -7 97 -10 39
-3 86 -7 105 -10 18 -3 62 -7 98 -11 36 -3 81 -7 100 -9 19 -2 64 -6 100 -10
36 -3 74 -8 85 -10 11 -2 25 -4 31 -4 7 -1 14 -13 17 -28 2 -16 32 -116 66
-223 35 -107 63 -199 65 -205 9 -38 51 -162 56 -168 4 -5 27 4 51 19 24 15 53
32 64 38 11 6 100 58 198 116 97 58 185 110 195 115 17 10 211 124 263 155 14
8 59 34 100 58 41 24 92 54 114 68 22 13 47 27 55 31 8 4 44 25 80 48 36 22
76 46 90 53 14 7 39 21 55 32 17 10 41 25 55 32 14 8 57 33 95 57 39 23 77 46
85 51 21 12 188 109 227 131 17 10 50 29 72 43 22 15 45 26 50 26 5 0 11 4 13
8 2 5 15 15 30 23 73 38 164 92 169 101 3 5 9 9 13 9 7 -2 195 107 213 123 9
8 0 24 -35 63 -26 28 -56 62 -66 75 -32 38 -121 143 -126 148 -9 9 -150 172
-259 300 -35 41 -68 77 -72 78 -16 6 -9 18 42 73 28 30 94 101 148 159 54 58
113 121 131 140 27 29 207 222 275 295 81 86 252 269 425 455 14 15 57 60 95
101 l70 73 1 203 c1 139 -2 205 -10 211 -6 4 -72 28 -146 51 -74 24 -192 63
-263 87 -70 24 -129 44 -132 44 -3 0 -10 3 -17 5 -26 10 -293 97 -303 99 -16
3 -937 306 -967 318 -15 5 -30 10 -32 9 -3 0 -22 7 -41 15 -41 17 -39 18 -126
-52 l-65 -53 -105 25 c-57 14 -111 27 -120 29 -14 3 -120 28 -179 42 -14 3
-34 8 -45 10 -11 2 -38 9 -60 15 -22 6 -47 12 -55 13 -17 3 -102 23 -275 65
-66 16 -131 31 -145 34 -14 3 -45 11 -70 16 -25 6 -53 12 -62 14 -22 3 -27 8
-33 32 -2 11 -14 57 -25 104 -11 47 -22 93 -25 103 -11 49 -26 73 -137 222
-66 88 -125 167 -133 176 -7 10 -36 20 -66 24 -30 4 -63 9 -74 11 -11 3 -36 7
-55 10 -19 3 -73 12 -120 19 -47 8 -103 17 -125 20 -57 8 -95 16 -95 20 0 2
12 36 26 77 48 138 85 271 77 278 -8 8 -64 39 -163 93 -30 16 -102 57 -160 89
l-104 60 -26 -32 -26 -32 -60 49 c-104 87 -183 172 -287 304 -70 90 -198 296
-257 414 -14 28 -28 51 -32 53 -5 2 -8 8 -8 13 0 4 -14 39 -32 76 -17 38 -32
70 -33 73 -1 3 -9 23 -19 45 -29 66 -39 89 -41 100 -2 6 -12 31 -22 55 -11 25
-32 77 -46 115 -40 111 -68 189 -71 200 -1 6 -9 30 -16 55 -16 53 -13 42 -46
150 -23 77 -81 292 -89 330 -2 8 -8 33 -13 55 -6 22 -13 51 -16 65 -3 14 -12
57 -21 95 -8 39 -18 84 -21 100 -2 17 -7 38 -10 47 -6 19 -9 34 -19 98 -4 25
-9 54 -11 65 -21 98 -26 124 -29 150 -1 17 -8 57 -14 90 -10 57 -18 114 -26
180 -2 17 -6 44 -9 60 -3 17 -8 55 -11 85 -12 112 -15 136 -20 170 -12 93 -24
268 -26 402 -1 60 -5 83 -20 102 -18 23 -78 52 -124 59 -11 2 -32 7 -47 11
l-27 8 25 26 c138 145 169 332 71 435 -55 59 -202 125 -332 151 -5 2 -35 8
-65 14 -51 10 -83 16 -150 26 -14 3 -61 8 -105 12 -44 4 -89 8 -100 10 -11 1
-35 3 -53 3 -29 1 -31 3 -23 20 14 25 -30 51 -54 31 -18 -15 -18 -14 -6 27 5
17 34 64 64 105 110 147 234 393 272 538 2 8 11 42 20 75 23 89 28 312 9 405
-31 153 -85 261 -171 341 -50 47 -124 99 -140 99 -7 0 -13 5 -13 10 0 6 -9 10
-20 10 -11 0 -20 3 -20 8 0 7 -98 38 -155 48 -50 9 -167 10 -215 3z m-653
-1522 c0 -7 19 -52 42 -100 23 -47 42 -90 42 -94 -1 -7 -9 -8 -42 -4 -26 3
-72 172 -54 201 8 13 12 13 12 -3z m4139 -5570 c4 -31 36 -90 97 -180 37 -54
67 -106 67 -115 0 -9 -16 7 -36 36 -34 48 -74 73 -61 37 13 -32 -12 -23 -36
14 -34 51 -55 116 -52 160 1 20 3 45 4 55 1 20 14 15 17 -7z m165 -4 c8 -16
35 -62 60 -103 25 -41 56 -104 68 -140 13 -36 34 -89 47 -118 13 -29 24 -55
24 -57 0 -8 -36 -6 -44 2 -3 4 -16 8 -28 10 -29 5 -28 2 -35 74 -5 55 -79 277
-114 342 -5 9 -5 17 -1 17 5 0 15 -12 23 -27z m45 -468 c13 -33 26 -85 28
-115 6 -60 13 -123 22 -185 3 -22 7 -58 9 -80 5 -55 20 -171 30 -237 3 -22 -2
-30 -31 -47 -19 -12 -37 -21 -39 -21 -4 0 -13 44 -20 100 -2 19 -9 67 -15 105
-6 39 -13 86 -16 105 -2 19 -9 60 -14 90 -9 50 -16 100 -25 170 -3 27 -12 78
-21 125 l-6 30 31 -29 30 -29 -11 34 c-6 19 -15 43 -19 54 -4 11 -11 31 -15
45 -3 14 -12 32 -20 40 -7 9 -16 36 -19 60 -5 42 -3 39 46 -55 28 -55 61 -127
75 -160z m-213 125 c32 -16 32 -12 8 -78 -11 -29 -20 -56 -21 -60 -3 -21 -42
-143 -45 -140 -3 3 -11 62 -21 143 -2 21 -7 51 -9 65 -3 14 -8 44 -12 68 l-6
42 39 -14 c22 -7 51 -19 67 -26z m439 -217 c24 -48 44 -80 46 -71 2 10 -2 26
-8 38 -6 11 -8 25 -5 30 3 5 1 11 -5 15 -13 8 -13 45 0 45 6 0 18 -4 28 -10
35 -19 192 -89 192 -85 0 2 30 -11 68 -29 37 -18 117 -55 177 -81 61 -26 137
-59 170 -74 33 -15 102 -45 152 -67 51 -21 93 -42 93 -46 0 -4 -57 -53 -127
-110 -71 -56 -130 -104 -133 -107 -3 -4 -26 -23 -51 -43 l-47 -38 -33 38 c-19
21 -45 52 -59 68 -183 215 -158 195 -206 168 -21 -13 -46 -23 -54 -23 -12 0
-152 184 -195 256 -5 10 -14 22 -20 28 -5 7 -19 24 -30 39 -11 16 -34 47 -51
70 -90 119 -91 146 -4 104 57 -27 61 -31 102 -115z m-353 -295 c1 -51 4 -154
7 -228 l5 -135 -31 -17 -30 -17 0 33 c0 18 -3 36 -7 39 -22 23 -19 186 5 247
5 14 10 28 10 33 0 8 8 43 18 87 3 14 7 33 7 42 1 9 4 15 8 12 4 -2 7 -45 8
-96z m-5228 -330 c-5 -13 -21 -63 -36 -113 -16 -49 -31 -97 -36 -105 -4 -8
-26 -61 -49 -117 -23 -57 -46 -103 -51 -103 -14 0 -109 53 -109 61 0 3 24 31
53 60 65 66 127 144 127 158 0 6 4 11 8 11 5 0 28 38 51 85 40 81 60 111 42
63z m-386 -33 c36 -5 118 -45 129 -63 11 -19 -59 -135 -103 -170 -25 -21 -47
-40 -49 -44 -2 -5 -8 -8 -13 -8 -5 0 -17 -8 -27 -17 -31 -30 -85 -73 -93 -73
-19 0 -52 89 -55 150 -4 71 19 175 45 202 15 16 95 38 116 32 6 -2 28 -6 50
-9z m1141 -142 c-1 -18 -3 -33 -6 -33 -4 0 -6 -10 -6 -22 -1 -21 -21 -176 -30
-223 -2 -11 -7 -40 -10 -65 -3 -25 -8 -56 -10 -70 -3 -14 -6 -38 -8 -55 -7
-66 -17 -141 -22 -156 -2 -9 -7 -36 -9 -59 -6 -55 -9 -58 -25 -20 -7 16 -18
30 -25 30 -7 0 -41 16 -75 35 -34 19 -66 35 -71 35 -15 0 -11 13 30 101 40 87
88 214 116 309 30 100 46 155 51 180 6 31 6 31 38 34 14 1 28 5 31 8 16 16 32
2 31 -29z m-1145 -240 c-10 -38 -21 -78 -25 -90 -11 -33 5 -28 31 10 13 17 36
46 51 64 28 31 30 32 48 15 11 -9 36 -31 56 -48 l36 -32 -29 -50 c-15 -27 -52
-81 -80 -118 -29 -38 -61 -90 -72 -116 l-19 -47 -131 5 c-72 3 -133 7 -136 9
-2 3 3 13 12 23 10 10 17 22 17 25 0 4 17 33 37 63 l38 57 21 -47 c21 -46 35
-51 28 -11 -9 55 -6 132 7 155 25 45 122 200 124 200 2 0 -5 -30 -14 -67z
m5449 -634 c43 -135 47 -161 28 -154 -7 3 -58 7 -113 9 -55 3 -106 5 -113 5
-8 1 -11 10 -7 29 3 15 8 38 10 52 2 14 9 40 14 59 6 19 8 38 5 42 -3 5 -1 9
4 9 5 0 9 6 9 13 0 6 13 70 29 141 l28 128 33 -103 c18 -57 51 -161 73 -230z
m-3433 -2806 c109 -223 220 -455 258 -538 15 -33 46 -100 70 -150 81 -174 98
-212 181 -405 46 -107 89 -203 94 -212 6 -10 10 -22 10 -27 0 -4 10 -30 22
-57 12 -27 23 -53 24 -59 2 -5 19 -52 39 -103 70 -185 87 -256 91 -397 4 -156
7 -195 14 -195 3 0 7 -11 8 -24 1 -13 25 -100 53 -192 90 -293 94 -311 76
-311 -67 -2 -450 -16 -512 -18 -193 -9 -325 -16 -385 -20 -36 -2 -117 -7 -180
-11 -63 -3 -135 -7 -160 -9 -25 -2 -90 -6 -145 -9 -55 -4 -116 -8 -135 -11
-19 -2 -79 -7 -134 -10 -54 -4 -106 -8 -116 -10 -16 -3 -105 -11 -210 -20 -78
-6 -166 -15 -189 -20 -34 -6 -171 -17 -171 -13 0 2 5 19 11 38 6 19 12 44 14
55 2 11 10 55 18 97 14 76 16 302 4 343 -4 11 -9 36 -12 55 -8 53 -24 88 -81
175 -72 111 -99 214 -81 306 4 20 26 81 48 135 22 55 41 104 43 109 1 6 16 41
34 78 18 38 32 70 32 72 0 4 88 190 195 410 42 88 76 162 75 164 -1 2 2 7 7
10 9 6 30 50 31 65 0 5 4 12 9 15 4 3 52 94 106 201 81 162 316 621 321 627 1
2 91 10 196 18 130 10 273 25 277 29 1 1 15 3 30 4 28 2 32 -4 120 -185z
m1438 -2111 c2 -13 10 -45 18 -70 24 -77 47 -156 52 -177 2 -11 22 -81 44
-155 21 -74 38 -137 36 -140 -2 -3 -62 -5 -135 -5 l-132 0 -13 40 c-8 22 -32
107 -55 188 -40 141 -43 170 -25 227 18 56 74 120 142 163 l38 24 13 -35 c7
-20 14 -47 17 -60z m-2934 -524 c-17 -90 -33 -173 -36 -185 -5 -23 -18 -27
-115 -39 -56 -7 -62 -7 -142 -19 -27 -4 -48 -5 -48 -3 0 3 11 36 24 74 57 168
109 246 205 306 38 24 134 49 139 37 2 -4 -11 -81 -27 -171z"/>
</g>
</svg>
